<?xml version="1.0" encoding="utf-8"?>
<!-- Generator: Adobe Illustrator 21.0.2, SVG Export Plug-In . SVG Version: 6.00 Build 0)  -->
<svg version="1.1" id="Layer_1" xmlns="http://www.w3.org/2000/svg" xmlns:xlink="http://www.w3.org/1999/xlink" x="0px" y="0px"
	 viewBox="0 0 64 64" style="enable-background:new 0 0 64 64;" xml:space="preserve">
<style type="text/css">
	.st0{fill:#f0f0f0;}
</style>
<g>
	<g>
		<path class="st0" d="M37.9,50c-4,0-7.9,0-11.9,0c-0.1,0-0.2,0-0.3-0.1c-1.2-0.1-2.4-0.1-3.5-0.3c-3.9-0.7-6.5-3-7.6-6.8
			c-0.5-1.7-0.6-3.4-0.6-5.1c0-4,0-7.9,0-11.9c0-1.4,0.1-2.9,0.4-4.2c0.8-3.1,2.6-5.3,5.5-6.5c1.7-0.7,3.5-0.9,5.3-0.9
			c0.3,0,0.5,0,0.8-0.1c4,0,7.9,0,11.9,0c0.1,0,0.2,0,0.3,0.1c1.4,0,2.8,0.1,4.2,0.5c3.1,0.8,5.3,2.6,6.5,5.5
			c0.7,1.7,0.9,3.5,0.9,5.3c0,0.3,0,0.5,0.1,0.8c0,4,0,7.9,0,11.9c0,0.1,0,0.2-0.1,0.3c0,1.4-0.1,2.8-0.5,4.2
			c-0.8,3.1-2.6,5.3-5.5,6.5c-1.7,0.7-3.5,0.9-5.3,0.9C38.5,49.9,38.2,50,37.9,50z M32,46.7C32,46.7,32,46.7,32,46.7
			c1.5,0,3,0.1,4.5,0c1.5,0,3.1-0.1,4.6-0.3c2.7-0.4,4.5-2,5.2-4.7c0.4-1.4,0.4-2.9,0.4-4.4c0-3.3,0-6.6,0-9.9
			c0-1.5-0.1-3.1-0.3-4.5c-0.4-2.7-2-4.5-4.7-5.2c-1.4-0.4-2.9-0.4-4.4-0.4c-3.3,0-6.6,0-9.9,0c-1.5,0-3.1,0.1-4.5,0.3
			c-2.7,0.4-4.5,2-5.2,4.7c-0.4,1.4-0.4,2.9-0.4,4.4c0,3.3,0,6.6,0,9.9c0,1.5,0.1,3.1,0.3,4.5c0.4,2.7,2,4.5,4.7,5.2
			c1.3,0.3,2.6,0.4,3.9,0.4C28.1,46.7,30,46.7,32,46.7z"/>
		<path class="st0" d="M41.3,32c0,5.1-4.2,9.3-9.3,9.3c-5.1,0-9.3-4.2-9.3-9.3c0-5.1,4.2-9.2,9.3-9.2C37.1,22.7,41.3,26.9,41.3,32z
			 M32,38c3.3,0,6-2.7,6-5.9c0-3.3-2.7-6-5.9-6c-3.3,0-6,2.7-6,6C26,35.3,28.7,38,32,38z"/>
		<path class="st0" d="M41.6,24.6c-1.2,0-2.2-1-2.2-2.2c0-1.2,1-2.2,2.2-2.2c1.2,0,2.2,1,2.2,2.2C43.8,23.6,42.8,24.6,41.6,24.6z"/>
	</g>
</g>
</svg>
